<svg width="24" height="24" viewBox="0 0 24 24" fill="none" xmlns="http://www.w3.org/2000/svg">
<path d="M12 20C16.4183 20 20 16.4183 20 12C20 7.58172 16.4183 4 12 4C7.58172 4 4 7.58172 4 12C4 16.4183 7.58172 20 12 20Z" stroke="white" stroke-width="1.77778" stroke-miterlimit="10"/>
<path d="M4.33333 14.3333L9 10L16.8 18.72" stroke="white" stroke-width="1.77778" stroke-miterlimit="10"/>
<path d="M13.3333 14.2222L15.8726 12L19.1111 15.5556" stroke="white" stroke-width="1.77778" stroke-miterlimit="10"/>
<path d="M14.7778 9.55554C15.3301 9.55554 15.7778 9.10783 15.7778 8.55554C15.7778 8.00326 15.3301 7.55554 14.7778 7.55554C14.2255 7.55554 13.7778 8.00326 13.7778 8.55554C13.7778 9.10783 14.2255 9.55554 14.7778 9.55554Z" fill="white"/>
</svg>
